<?xml version="1.0" standalone="no"?><!DOCTYPE svg PUBLIC "-//W3C//DTD SVG 1.1//EN"
        "http://www.w3.org/Graphics/SVG/1.1/DTD/svg11.dtd">
<svg t="1579153805456" class="icon" viewBox="0 0 1024 1024" version="1.1" xmlns="http://www.w3.org/2000/svg" p-id="9106"
     xmlns:xlink="http://www.w3.org/1999/xlink" width="200" height="200">
    <defs>
        <style type="text/css"></style>
    </defs>
    <path d="M309.3 701.17c21.29-36.88 8.45-84.27-28.75-105.75-37.28-21.52-84.74-8.95-106.03 27.93-13.51 23.4-13.21 51.08-1.67 73.67l-74.2 128.52-29.47-389.08 0.82 0.47 221.58-153.7 253.99 146.64-22.4 268.7 0.74 0.43-351.53 169.12 74.25-128.6c25.17-1.39 49.16-14.95 62.67-38.35zM587.06 398.89l-267.09-154.2 56.01-189.25 346.97 200.32zM978.3 909.42H284.79l158.05-82.6H978.3z"
           p-id="9107"></path>
</svg>
