<?xml version="1.0" standalone="no"?><!DOCTYPE svg PUBLIC "-//W3C//DTD SVG 1.1//EN"
        "http://www.w3.org/Graphics/SVG/1.1/DTD/svg11.dtd">
<svg t="1578972500439" class="icon" viewBox="0 0 1024 1024" version="1.1" xmlns="http://www.w3.org/2000/svg" p-id="1142"
     xmlns:xlink="http://www.w3.org/1999/xlink" width="200" height="200">
    <defs>
        <style type="text/css"></style>
    </defs>
    <path d="M920.6 401.1c0 11.4-4.1 22.9-12.2 31.7L581.3 727.9c-16.4 17.4-29.7 11.5-29.7-13.1V612c0-24.6-18.9-44.8-42.1-44.8-41.8 3.7-94 14.7-147.2 43C178.2 708.1 144 927.3 139.5 959.8c-3.3-7.8-8-19.3-12.7-33.4-47.7-142.7-9.5-273.4 1.5-309.4 76.9-251.3 319.4-358.8 365.8-378.1 8.5-3.5 38-13.7 40.3-16.1 10.2-8.2 17.2-20.6 17.2-35.2V87.4c0-24.7 13.4-30.5 29.7-13.1l327.1 295.1c8.2 8.8 12.2 20.2 12.2 31.7z"
           p-id="1143"></path>
</svg>
