<?xml version="1.0" standalone="no"?><!DOCTYPE svg PUBLIC "-//W3C//DTD SVG 1.1//EN" "http://www.w3.org/Graphics/SVG/1.1/DTD/svg11.dtd"><svg t="1577087147822" class="icon" viewBox="0 0 1445 1024" version="1.1" xmlns="http://www.w3.org/2000/svg" p-id="2611" xmlns:xlink="http://www.w3.org/1999/xlink" width="282.2265625" height="200"><defs><style type="text/css"></style></defs><path d="M1152.301176 466.582588l-126.494117-165.707294a82.823529 82.823529 0 0 0-127.397647-4.999529L553.803294 681.261176a83.425882 83.425882 0 0 1-122.398118 1.385412l-93.364705-99.689412c-34.032941-36.321882-93.364706-34.936471-124.566589 4.276706L18.010353 827.934118c-42.767059 52.766118-4.336941 131.072 64.451765 131.072h914.371764a301.296941 301.296941 0 0 1 155.407059-492.42353z m-728.847058-284.310588C423.454118 107.218824 361.652706 46.260706 285.214118 46.260706c-76.498824 0-138.360471 60.958118-138.360471 136.131765 0 75.173647 61.921882 136.131765 138.360471 136.131764 76.438588 0 138.360471-60.958118 138.36047-136.131764z m796.912941 795.045647a224.858353 224.858353 0 1 0 0.783059-449.776941 224.858353 224.858353 0 0 0-0.783059 449.776941z m-19.215059-188.717176H1118.569412a27.708235 27.708235 0 0 1-26.142118-11.745883 24.395294 24.395294 0 0 1 0-27.346823 27.708235 27.708235 0 0 1 26.142118-11.745883h82.703059v-82.703058a27.708235 27.708235 0 0 1 11.745882-26.142118 24.395294 24.395294 0 0 1 27.346823 0 27.708235 27.708235 0 0 1 11.745883 26.142118v82.703058h82.703059a27.708235 27.708235 0 0 1 26.142117 11.745883 24.395294 24.395294 0 0 1 0 27.346823 27.708235 27.708235 0 0 1-26.142117 11.745883h-82.703059v82.703058a27.708235 27.708235 0 0 1-11.745883 26.081883 24.395294 24.395294 0 0 1-27.346823 0 27.708235 27.708235 0 0 1-11.806118-26.081883v-82.703058z" p-id="2612" fill="#515151"></path></svg>