<?xml version="1.0" standalone="no"?><!DOCTYPE svg PUBLIC "-//W3C//DTD SVG 1.1//EN"
        "http://www.w3.org/Graphics/SVG/1.1/DTD/svg11.dtd">
<svg t="1578894035586" class="icon" viewBox="0 0 1024 1024" version="1.1" xmlns="http://www.w3.org/2000/svg" p-id="2118"
     xmlns:xlink="http://www.w3.org/1999/xlink" width="200" height="200">
    <defs>
        <style type="text/css"></style>
    </defs>
    <path d="M895.233024 566.016c0-15.4112 5.2224-30.8736 5.2224-51.456 0-20.5824 0-35.9936-5.2224-51.456l109.6704-87.4496c10.4448-10.2912 10.4448-20.5824 5.2224-30.8736l-104.448-180.1216c-5.2224-5.12-15.6672-10.24-31.3344-5.12l-130.56 51.456c-26.112-20.5824-57.4976-36.0448-88.832-51.456L634.061824 25.7536C639.284224 10.24 623.617024 0 613.172224 0h-208.896c-10.496 0-26.112 10.2912-26.112 20.5824l-20.9408 138.9568c-31.3344 10.24-57.4464 30.8736-88.7808 51.456L143.053824 159.5392c-15.6672-5.12-26.112 0-36.5568 10.24L2.049024 349.952c-5.2224 5.12 0 20.5824 10.4448 30.8736l109.6704 82.3296c0 15.4624-5.2224 30.8736-5.2224 51.456 0 20.5824 0 36.0448 5.2224 51.456L12.493824 653.5168c-10.4448 10.24-10.4448 20.5824-5.2224 30.8736l104.448 180.0704c5.2224 5.12 15.6672 10.2912 31.3344 5.12l130.56-51.4048c26.112 20.5824 57.4976 35.9936 88.832 51.456l20.8896 133.7856c0 10.2912 10.4448 20.5824 26.112 20.5824h208.896c10.496 0 26.112-10.2912 26.112-20.5824l20.9408-133.7856c31.3344-15.4624 62.6688-30.8736 88.7808-51.456l130.56 51.456c10.496 5.12 26.112 0 31.3856-10.2912l104.448-180.1216c5.2224-10.24 5.2224-25.7024-5.2224-30.8736l-120.1152-82.3296zM512.001024 716.8c-111.1552 0-204.8-93.6448-204.8-204.8 0-111.1552 93.6448-204.8 204.8-204.8 111.1552 0 204.8 93.6448 204.8 204.8 0 111.1552-93.6448 204.8-204.8 204.8z"
          p-id="2119" fill="#f4f5f8"></path>
</svg>
