<?xml version="1.0" standalone="no"?><!DOCTYPE svg PUBLIC "-//W3C//DTD SVG 1.1//EN"
        "http://www.w3.org/Graphics/SVG/1.1/DTD/svg11.dtd">
<svg t="1579590089405" class="icon" viewBox="0 0 1024 1024" version="1.1" xmlns="http://www.w3.org/2000/svg" p-id="3006"
     xmlns:xlink="http://www.w3.org/1999/xlink" width="200" height="200">
    <defs>
        <style type="text/css"></style>
    </defs>
    <path d="M282.02677 512c0 58.599629-47.485501 106.08513-106.050338 106.08513-58.601676 0-106.087177-47.485501-106.087177-106.08513 0-58.601676 47.485501-106.087177 106.087177-106.087177C234.541269 405.912823 282.02677 453.398324 282.02677 512z"
          fill="#666" p-id="3007"></path>
    <path d="M618.022197 512c0 58.599629-47.520293 106.08513-106.086154 106.08513-58.601676 0-106.087177-47.485501-106.087177-106.08513 0-58.601676 47.485501-106.087177 106.087177-106.087177C570.501904 405.912823 618.022197 453.398324 618.022197 512z"
          fill="#666" p-id="3008"></path>
    <path d="M953.982832 512c0 58.599629-47.520293 106.08513-106.086154 106.08513-58.603723 0-106.089224-47.485501-106.089224-106.08513 0-58.601676 47.485501-106.087177 106.089224-106.087177C906.461515 405.912823 953.982832 453.398324 953.982832 512z"
          fill="#666" p-id="3009"></path>
</svg>
